<svg id="microphone-off" xmlns="http://www.w3.org/2000/svg" width="20" height="20" viewBox="0 0 20 20">
  <path id="Caminho_4" data-name="Caminho 4" d="M0,0H20V20H0Z" fill="none"/>
  <line id="Linha_6" data-name="Linha 6" x2="15" y2="15" transform="translate(2.5 2.5)" fill="none" stroke="#6998e0" stroke-linecap="round" stroke-linejoin="round" stroke-width="1.5"/>
  <path id="Caminho_5" data-name="Caminho 5" d="M9,4.5a2.5,2.5,0,0,1,5,0V8.667a2.5,2.5,0,0,1-.108.729m-1.667,1.666A2.5,2.5,0,0,1,9,8.668V7.835" transform="translate(-1.5 -0.333)" fill="none" stroke="#6998e0" stroke-linecap="round" stroke-linejoin="round" stroke-width="1.5"/>
  <path id="Caminho_6" data-name="Caminho 6" d="M5,10a5.833,5.833,0,0,0,9.038,4.875m1.668-1.667A5.806,5.806,0,0,0,16.667,10" transform="translate(-0.833 -1.667)" fill="none" stroke="#6998e0" stroke-linecap="round" stroke-linejoin="round" stroke-width="1.5"/>
  <line id="Linha_7" data-name="Linha 7" x2="6.667" transform="translate(6.667 17.5)" fill="none" stroke="#6998e0" stroke-linecap="round" stroke-linejoin="round" stroke-width="1.5"/>
  <line id="Linha_8" data-name="Linha 8" y2="3.333" transform="translate(10 14.167)" fill="none" stroke="#6998e0" stroke-linecap="round" stroke-linejoin="round" stroke-width="1.5"/>
</svg>
